<mxfile host="app.diagrams.net" agent="Mozilla/5.0 (Macintosh; Intel Mac OS X 10_15_7) AppleWebKit/537.36 (KHTML, like Gecko) Chrome/132.0.0.0 Safari/537.36" version="24.8.3">
  <diagram name="Page-1" id="e7e014a7-5840-1c2e-5031-d8a46d1fe8dd">
    <mxGraphModel dx="2195" dy="650" grid="1" gridSize="10" guides="1" tooltips="1" connect="1" arrows="1" fold="1" page="1" pageScale="1" pageWidth="1169" pageHeight="826" background="none" math="0" shadow="0">
      <root>
        <mxCell id="0" />
        <mxCell id="1" parent="0" />
        <mxCell id="rTWGkL5kvWjvcT3Wz9Io-42" value="dbcrudgen-cpp" style="shape=module;align=left;spacingLeft=20;align=center;verticalAlign=top;whiteSpace=wrap;html=1;" vertex="1" parent="1">
          <mxGeometry x="174" y="130" width="146" height="50" as="geometry" />
        </mxCell>
        <mxCell id="rTWGkL5kvWjvcT3Wz9Io-44" value="dbcrudgen-mariadb" style="shape=module;align=left;spacingLeft=20;align=center;verticalAlign=top;whiteSpace=wrap;html=1;" vertex="1" parent="1">
          <mxGeometry x="370" y="30" width="170" height="30" as="geometry" />
        </mxCell>
        <mxCell id="rTWGkL5kvWjvcT3Wz9Io-45" value="dbcrudgen-mysql" style="shape=module;align=left;spacingLeft=20;align=center;verticalAlign=top;whiteSpace=wrap;html=1;" vertex="1" parent="1">
          <mxGeometry x="370" y="60" width="170" height="30" as="geometry" />
        </mxCell>
        <mxCell id="rTWGkL5kvWjvcT3Wz9Io-46" value="dbcrudgen-postgresql" style="shape=module;align=left;spacingLeft=20;align=center;verticalAlign=top;whiteSpace=wrap;html=1;" vertex="1" parent="1">
          <mxGeometry x="370" y="120" width="170" height="30" as="geometry" />
        </mxCell>
        <mxCell id="rTWGkL5kvWjvcT3Wz9Io-47" value="dbcrudgen-oracle" style="shape=module;align=left;spacingLeft=20;align=center;verticalAlign=top;whiteSpace=wrap;html=1;" vertex="1" parent="1">
          <mxGeometry x="370" y="90" width="170" height="30" as="geometry" />
        </mxCell>
        <mxCell id="rTWGkL5kvWjvcT3Wz9Io-48" value="dbcrudgen-sqlserver" style="shape=module;align=left;spacingLeft=20;align=center;verticalAlign=top;whiteSpace=wrap;html=1;" vertex="1" parent="1">
          <mxGeometry x="370" y="150" width="170" height="30" as="geometry" />
        </mxCell>
        <mxCell id="rTWGkL5kvWjvcT3Wz9Io-70" value="Terminal" style="shape=umlLifeline;perimeter=lifelinePerimeter;whiteSpace=wrap;html=1;container=1;dropTarget=0;collapsible=0;recursiveResize=0;outlineConnect=0;portConstraint=eastwest;newEdgeStyle={&quot;curved&quot;:0,&quot;rounded&quot;:0};" vertex="1" parent="1">
          <mxGeometry x="20" y="200" width="100" height="650" as="geometry" />
        </mxCell>
        <mxCell id="rTWGkL5kvWjvcT3Wz9Io-72" value="" style="html=1;points=[[0,0,0,0,5],[0,1,0,0,-5],[1,0,0,0,5],[1,1,0,0,-5]];perimeter=orthogonalPerimeter;outlineConnect=0;targetShapes=umlLifeline;portConstraint=eastwest;newEdgeStyle={&quot;curved&quot;:0,&quot;rounded&quot;:0};" vertex="1" parent="rTWGkL5kvWjvcT3Wz9Io-70">
          <mxGeometry x="45" y="70" width="10" height="510" as="geometry" />
        </mxCell>
        <mxCell id="rTWGkL5kvWjvcT3Wz9Io-71" value="Project Creator" style="shape=umlLifeline;perimeter=lifelinePerimeter;whiteSpace=wrap;html=1;container=1;dropTarget=0;collapsible=0;recursiveResize=0;outlineConnect=0;portConstraint=eastwest;newEdgeStyle={&quot;curved&quot;:0,&quot;rounded&quot;:0};" vertex="1" parent="1">
          <mxGeometry x="209" y="200" width="100" height="650" as="geometry" />
        </mxCell>
        <mxCell id="rTWGkL5kvWjvcT3Wz9Io-75" value="Create project" style="shape=umlFrame;whiteSpace=wrap;html=1;pointerEvents=0;width=110;height=20;" vertex="1" parent="1">
          <mxGeometry x="-70" y="260" width="1000" height="550" as="geometry" />
        </mxCell>
        <mxCell id="rTWGkL5kvWjvcT3Wz9Io-76" value="" style="html=1;points=[[0,0,0,0,5],[0,1,0,0,-5],[1,0,0,0,5],[1,1,0,0,-5]];perimeter=orthogonalPerimeter;outlineConnect=0;targetShapes=umlLifeline;portConstraint=eastwest;newEdgeStyle={&quot;curved&quot;:0,&quot;rounded&quot;:0};" vertex="1" parent="1">
          <mxGeometry x="254" y="270" width="10" height="370" as="geometry" />
        </mxCell>
        <mxCell id="rTWGkL5kvWjvcT3Wz9Io-77" value="Create project&amp;nbsp;&lt;div&gt;method/api&lt;/div&gt;" style="html=1;verticalAlign=bottom;endArrow=block;curved=0;rounded=0;entryX=0;entryY=0;entryDx=0;entryDy=5;exitX=1;exitY=0;exitDx=0;exitDy=5;exitPerimeter=0;" edge="1" parent="1">
          <mxGeometry relative="1" as="geometry">
            <mxPoint x="75" y="290" as="sourcePoint" />
            <mxPoint x="254" y="290" as="targetPoint" />
          </mxGeometry>
        </mxCell>
        <mxCell id="rTWGkL5kvWjvcT3Wz9Io-78" value="project created with&amp;nbsp;&lt;div&gt;default directory structure&lt;/div&gt;" style="html=1;verticalAlign=bottom;endArrow=open;dashed=1;endSize=8;curved=0;rounded=0;exitX=0;exitY=1;exitDx=0;exitDy=-5;" edge="1" parent="1">
          <mxGeometry relative="1" as="geometry">
            <mxPoint x="75" y="329.5" as="targetPoint" />
            <mxPoint x="254" y="329.5" as="sourcePoint" />
          </mxGeometry>
        </mxCell>
        <mxCell id="rTWGkL5kvWjvcT3Wz9Io-82" value="Add and configure&amp;nbsp;&lt;div&gt;default project components&lt;/div&gt;" style="html=1;verticalAlign=bottom;endArrow=block;curved=0;rounded=0;entryX=0;entryY=0;entryDx=0;entryDy=5;exitX=1;exitY=0;exitDx=0;exitDy=5;exitPerimeter=0;" edge="1" parent="1">
          <mxGeometry relative="1" as="geometry">
            <mxPoint x="75" y="380" as="sourcePoint" />
            <mxPoint x="254" y="380" as="targetPoint" />
          </mxGeometry>
        </mxCell>
        <mxCell id="rTWGkL5kvWjvcT3Wz9Io-83" value="configured project" style="html=1;verticalAlign=bottom;endArrow=open;dashed=1;endSize=8;curved=0;rounded=0;exitX=0;exitY=1;exitDx=0;exitDy=-5;" edge="1" parent="1">
          <mxGeometry relative="1" as="geometry">
            <mxPoint x="75" y="420" as="targetPoint" />
            <mxPoint x="254" y="420" as="sourcePoint" />
          </mxGeometry>
        </mxCell>
        <mxCell id="rTWGkL5kvWjvcT3Wz9Io-84" value="DDL" style="shape=umlLifeline;perimeter=lifelinePerimeter;whiteSpace=wrap;html=1;container=1;dropTarget=0;collapsible=0;recursiveResize=0;outlineConnect=0;portConstraint=eastwest;newEdgeStyle={&quot;curved&quot;:0,&quot;rounded&quot;:0};" vertex="1" parent="1">
          <mxGeometry x="410" y="200" width="100" height="650" as="geometry" />
        </mxCell>
        <mxCell id="rTWGkL5kvWjvcT3Wz9Io-86" value="" style="html=1;points=[[0,0,0,0,5],[0,1,0,0,-5],[1,0,0,0,5],[1,1,0,0,-5]];perimeter=orthogonalPerimeter;outlineConnect=0;targetShapes=umlLifeline;portConstraint=eastwest;newEdgeStyle={&quot;curved&quot;:0,&quot;rounded&quot;:0};" vertex="1" parent="rTWGkL5kvWjvcT3Wz9Io-84">
          <mxGeometry x="45" y="250" width="10" height="80" as="geometry" />
        </mxCell>
        <mxCell id="rTWGkL5kvWjvcT3Wz9Io-87" value="Request DDL" style="html=1;verticalAlign=bottom;endArrow=block;curved=0;rounded=0;entryX=0;entryY=0;entryDx=0;entryDy=5;" edge="1" target="rTWGkL5kvWjvcT3Wz9Io-86" parent="1" source="rTWGkL5kvWjvcT3Wz9Io-76">
          <mxGeometry relative="1" as="geometry">
            <mxPoint x="385" y="455" as="sourcePoint" />
          </mxGeometry>
        </mxCell>
        <mxCell id="rTWGkL5kvWjvcT3Wz9Io-88" value="return" style="html=1;verticalAlign=bottom;endArrow=open;dashed=1;endSize=8;curved=0;rounded=0;exitX=0;exitY=1;exitDx=0;exitDy=-5;" edge="1" source="rTWGkL5kvWjvcT3Wz9Io-86" parent="1" target="rTWGkL5kvWjvcT3Wz9Io-76">
          <mxGeometry relative="1" as="geometry">
            <mxPoint x="385" y="525" as="targetPoint" />
          </mxGeometry>
        </mxCell>
        <mxCell id="rTWGkL5kvWjvcT3Wz9Io-89" value="New Project" style="shape=umlLifeline;perimeter=lifelinePerimeter;whiteSpace=wrap;html=1;container=1;dropTarget=0;collapsible=0;recursiveResize=0;outlineConnect=0;portConstraint=eastwest;newEdgeStyle={&quot;curved&quot;:0,&quot;rounded&quot;:0};" vertex="1" parent="1">
          <mxGeometry x="620" y="200" width="100" height="650" as="geometry" />
        </mxCell>
        <mxCell id="rTWGkL5kvWjvcT3Wz9Io-90" value="" style="html=1;points=[[0,0,0,0,5],[0,1,0,0,-5],[1,0,0,0,5],[1,1,0,0,-5]];perimeter=orthogonalPerimeter;outlineConnect=0;targetShapes=umlLifeline;portConstraint=eastwest;newEdgeStyle={&quot;curved&quot;:0,&quot;rounded&quot;:0};" vertex="1" parent="rTWGkL5kvWjvcT3Wz9Io-89">
          <mxGeometry x="45" y="80" width="10" height="370" as="geometry" />
        </mxCell>
        <mxCell id="rTWGkL5kvWjvcT3Wz9Io-91" value="Create project&amp;nbsp;&lt;div&gt;method/api&lt;/div&gt;" style="html=1;verticalAlign=bottom;endArrow=block;curved=0;rounded=0;exitX=1;exitY=0;exitDx=0;exitDy=5;exitPerimeter=0;" edge="1" parent="1" target="rTWGkL5kvWjvcT3Wz9Io-89">
          <mxGeometry relative="1" as="geometry">
            <mxPoint x="264" y="290" as="sourcePoint" />
            <mxPoint x="443" y="290" as="targetPoint" />
          </mxGeometry>
        </mxCell>
        <mxCell id="rTWGkL5kvWjvcT3Wz9Io-92" value="project created with&amp;nbsp;&lt;div&gt;default directory structure&lt;/div&gt;" style="html=1;verticalAlign=bottom;endArrow=open;dashed=1;endSize=8;curved=0;rounded=0;" edge="1" parent="1" source="rTWGkL5kvWjvcT3Wz9Io-90">
          <mxGeometry relative="1" as="geometry">
            <mxPoint x="264" y="330" as="targetPoint" />
            <mxPoint x="660" y="330" as="sourcePoint" />
          </mxGeometry>
        </mxCell>
        <mxCell id="rTWGkL5kvWjvcT3Wz9Io-93" value="Write Project" style="html=1;verticalAlign=bottom;endArrow=block;curved=0;rounded=0;exitX=1;exitY=0;exitDx=0;exitDy=5;exitPerimeter=0;" edge="1" parent="1">
          <mxGeometry relative="1" as="geometry">
            <mxPoint x="264" y="580" as="sourcePoint" />
            <mxPoint x="660" y="580" as="targetPoint" />
          </mxGeometry>
        </mxCell>
        <mxCell id="rTWGkL5kvWjvcT3Wz9Io-94" value="Project ORM" style="html=1;verticalAlign=bottom;endArrow=open;dashed=1;endSize=8;curved=0;rounded=0;" edge="1" parent="1">
          <mxGeometry relative="1" as="geometry">
            <mxPoint x="264" y="620" as="targetPoint" />
            <mxPoint x="665" y="620" as="sourcePoint" />
          </mxGeometry>
        </mxCell>
        <mxCell id="rTWGkL5kvWjvcT3Wz9Io-95" value="Write Project Db Structure" style="html=1;verticalAlign=bottom;endArrow=block;curved=0;rounded=0;entryX=0;entryY=0;entryDx=0;entryDy=5;" edge="1" parent="1">
          <mxGeometry relative="1" as="geometry">
            <mxPoint x="75" y="580" as="sourcePoint" />
            <mxPoint x="254" y="580" as="targetPoint" />
          </mxGeometry>
        </mxCell>
        <mxCell id="rTWGkL5kvWjvcT3Wz9Io-96" value="Project ORM" style="html=1;verticalAlign=bottom;endArrow=open;dashed=1;endSize=8;curved=0;rounded=0;exitX=0;exitY=1;exitDx=0;exitDy=-5;" edge="1" parent="1" target="rTWGkL5kvWjvcT3Wz9Io-72">
          <mxGeometry relative="1" as="geometry">
            <mxPoint x="80" y="620" as="targetPoint" />
            <mxPoint x="249" y="620" as="sourcePoint" />
          </mxGeometry>
        </mxCell>
        <mxCell id="rTWGkL5kvWjvcT3Wz9Io-97" value="Postman" style="shape=umlLifeline;perimeter=lifelinePerimeter;whiteSpace=wrap;html=1;container=1;dropTarget=0;collapsible=0;recursiveResize=0;outlineConnect=0;portConstraint=eastwest;newEdgeStyle={&quot;curved&quot;:0,&quot;rounded&quot;:0};" vertex="1" parent="1">
          <mxGeometry x="810" y="200" width="100" height="650" as="geometry" />
        </mxCell>
        <mxCell id="rTWGkL5kvWjvcT3Wz9Io-99" value="" style="html=1;points=[[0,0,0,0,5],[0,1,0,0,-5],[1,0,0,0,5],[1,1,0,0,-5]];perimeter=orthogonalPerimeter;outlineConnect=0;targetShapes=umlLifeline;portConstraint=eastwest;newEdgeStyle={&quot;curved&quot;:0,&quot;rounded&quot;:0};" vertex="1" parent="rTWGkL5kvWjvcT3Wz9Io-97">
          <mxGeometry x="45" y="480" width="10" height="100" as="geometry" />
        </mxCell>
        <mxCell id="rTWGkL5kvWjvcT3Wz9Io-98" value="Write Postman Project" style="html=1;verticalAlign=bottom;endArrow=block;curved=0;rounded=0;" edge="1" parent="1" target="rTWGkL5kvWjvcT3Wz9Io-99">
          <mxGeometry relative="1" as="geometry">
            <mxPoint x="75" y="700" as="sourcePoint" />
            <mxPoint x="850" y="700" as="targetPoint" />
          </mxGeometry>
        </mxCell>
        <mxCell id="rTWGkL5kvWjvcT3Wz9Io-100" value="Write Postman Project" style="html=1;verticalAlign=bottom;endArrow=open;dashed=1;endSize=8;curved=0;rounded=0;exitX=-0.1;exitY=0.8;exitDx=0;exitDy=0;exitPerimeter=0;" edge="1" parent="1" source="rTWGkL5kvWjvcT3Wz9Io-99" target="rTWGkL5kvWjvcT3Wz9Io-72">
          <mxGeometry relative="1" as="geometry">
            <mxPoint x="80" y="760" as="targetPoint" />
            <mxPoint x="860" y="760" as="sourcePoint" />
          </mxGeometry>
        </mxCell>
      </root>
    </mxGraphModel>
  </diagram>
</mxfile>
